<?xml version="1.0" encoding="UTF-8" standalone="no"?><!DOCTYPE svg PUBLIC "-//W3C//DTD SVG 1.1//EN" "http://www.w3.org/Graphics/SVG/1.1/DTD/svg11.dtd"><svg width="100%" height="100%" viewBox="0 0 16 16" version="1.1" xmlns="http://www.w3.org/2000/svg" xmlns:xlink="http://www.w3.org/1999/xlink" xml:space="preserve" xmlns:serif="http://www.serif.com/" style="fill-rule:evenodd;clip-rule:evenodd;stroke-linejoin:round;stroke-miterlimit:2;"><rect id="ability_pickup" x="0" y="0" width="16" height="16" style="fill:none;"/><path d="M8,0c4.415,0 8,3.585 8,8c0,4.415 -3.585,8 -8,8c-4.415,0 -8,-3.585 -8,-8c0,-4.415 3.585,-8 8,-8Zm0,2c-3.311,0 -6,2.689 -6,6c0,3.311 2.689,6 6,6c3.311,0 6,-2.689 6,-6c0,-3.311 -2.689,-6 -6,-6Z" style="fill:#e0e0e0;"/><path d="M7.899,3l1.145,3.455l3.706,0l-2.998,2.135l1.145,3.455l-2.998,-2.135l-2.998,2.135l1.145,-3.455l-2.998,-2.135l3.706,-0l1.145,-3.455Z" style="fill:#00ff9e;"/></svg>