<?xml version="1.0" encoding="UTF-8" standalone="no"?>
<!DOCTYPE svg PUBLIC "-//W3C//DTD SVG 1.1//EN" "http://www.w3.org/Graphics/SVG/1.1/DTD/svg11.dtd">
<svg width="100%" height="100%" viewBox="0 0 16 16" version="1.1" xmlns="http://www.w3.org/2000/svg" xmlns:xlink="http://www.w3.org/1999/xlink" xml:space="preserve" xmlns:serif="http://www.serif.com/" style="fill-rule:evenodd;clip-rule:evenodd;stroke-linejoin:round;stroke-miterlimit:2;">
    <g transform="matrix(1,0,0,1,-78,-24)">
        <g id="damage_area" transform="matrix(1,0,0,1,78,24)">
            <rect x="0" y="0" width="16" height="16" style="fill:none;"/>
            <clipPath id="_clip1">
                <rect x="0" y="0" width="16" height="16"/>
            </clipPath>
            <g clip-path="url(#_clip1)">
                <g transform="matrix(1.220831,0,0,1.235251,-1.759935,-2.038468)">
                    <path d="M1.442,5.698L1.442,1.65L5.537,1.65L5.537,3.269L3.08,3.269L3.08,5.698L1.442,5.698ZM12.909,4.079L12.909,3.269L10.452,3.269L10.452,1.65L14.547,1.65L14.547,4.079L12.909,4.079ZM3.08,10.555L3.08,12.984L5.537,12.984L5.537,14.603L1.442,14.603L1.442,10.555L3.08,10.555Z" style="fill:rgb(80,176,255);"/>
                </g>
                <g transform="matrix(1,0,0,1,-78,-24)">
                    <path d="M87,28L89,36L89,28L94,28L94,34C94,38 89,40 89,40C89,40 84,37.986 84,34L84,28L87,28Z" style="fill:rgb(80,176,255);"/>
                </g>
            </g>
        </g>
    </g>
</svg>
