<?xml version="1.0" encoding="UTF-8" standalone="no"?>
<!DOCTYPE svg PUBLIC "-//W3C//DTD SVG 1.1//EN" "http://www.w3.org/Graphics/SVG/1.1/DTD/svg11.dtd">
<svg width="100%" height="100%" viewBox="0 0 16 16" version="1.1" xmlns="http://www.w3.org/2000/svg" xmlns:xlink="http://www.w3.org/1999/xlink" xml:space="preserve" xmlns:serif="http://www.serif.com/" style="fill-rule:evenodd;clip-rule:evenodd;stroke-linejoin:round;stroke-miterlimit:2;">
    <g transform="matrix(1,0,0,1,-55.823425,0)">
        <g id="Decision-Engine" serif:id="Decision Engine" transform="matrix(1,0,0,1,-10.176575,0)">
            <rect x="66" y="0" width="16" height="16" style="fill:none;"/>
            <g transform="matrix(0.714286,0,0,0.714286,38.142857,0)">
                <circle cx="42.5" cy="3.5" r="3.5" style="fill:rgb(255,80,95);"/>
            </g>
            <g transform="matrix(0.689061,0,0,0.714286,50.303207,11)">
                <circle cx="42.5" cy="3.5" r="3.5" style="fill:rgb(255,80,95);"/>
            </g>
            <g transform="matrix(0.689061,0,0,0.714286,50.303207,0)">
                <circle cx="42.5" cy="3.5" r="3.5" style="fill:rgb(255,80,95);"/>
            </g>
            <g transform="matrix(0.739511,0,0,0.714286,37.159082,11)">
                <circle cx="42.5" cy="3.5" r="3.5" style="fill:rgb(255,80,95);"/>
            </g>
            <g transform="matrix(2.87063,0,0,2.8,-99.673116,-7.4)">
                <path d="M60.742,3.012L60.821,3.399C60.976,3.423 61.127,3.464 61.272,3.52L61.535,3.224C61.682,3.291 61.822,3.372 61.954,3.466L61.829,3.842C61.95,3.939 62.061,4.05 62.158,4.171L62.534,4.046C62.628,4.178 62.709,4.318 62.776,4.465L62.48,4.728C62.536,4.873 62.577,5.024 62.601,5.179L62.988,5.258C63.004,5.419 63.004,5.581 62.988,5.742L62.601,5.821C62.577,5.976 62.536,6.127 62.48,6.272L62.776,6.535C62.709,6.682 62.628,6.822 62.534,6.954L62.158,6.829C62.061,6.95 61.95,7.061 61.829,7.158L61.954,7.534C61.822,7.628 61.682,7.709 61.535,7.776L61.272,7.48C61.127,7.536 60.976,7.577 60.821,7.601L60.742,7.988C60.581,8.004 60.419,8.004 60.258,7.988L60.179,7.601C60.024,7.577 59.873,7.536 59.728,7.48L59.465,7.776C59.318,7.709 59.178,7.628 59.046,7.534L59.171,7.158C59.05,7.061 58.939,6.95 58.842,6.829L58.466,6.954C58.372,6.822 58.291,6.682 58.224,6.535L58.52,6.272C58.464,6.127 58.423,5.976 58.399,5.821L58.012,5.742C57.996,5.581 57.996,5.419 58.012,5.258L58.399,5.179C58.423,5.024 58.464,4.873 58.52,4.728L58.224,4.465C58.291,4.318 58.372,4.178 58.466,4.046L58.842,4.171C58.939,4.05 59.05,3.939 59.171,3.842L59.046,3.466C59.178,3.372 59.318,3.291 59.465,3.224L59.728,3.52C59.873,3.464 60.024,3.423 60.179,3.399L60.258,3.012C60.419,2.996 60.581,2.996 60.742,3.012ZM60.5,5C60.776,5 61,5.224 61,5.5C61,5.776 60.776,6 60.5,6C60.224,6 60,5.776 60,5.5C60,5.224 60.224,5 60.5,5Z" style="fill:rgb(229,229,229);"/>
            </g>
        </g>
    </g>
</svg>
