<?xml version="1.0" encoding="UTF-8" standalone="no"?><!DOCTYPE svg PUBLIC "-//W3C//DTD SVG 1.1//EN" "http://www.w3.org/Graphics/SVG/1.1/DTD/svg11.dtd"><svg width="100%" height="100%" viewBox="0 0 16 16" version="1.1" xmlns="http://www.w3.org/2000/svg" xmlns:xlink="http://www.w3.org/1999/xlink" xml:space="preserve" xmlns:serif="http://www.serif.com/" style="fill-rule:evenodd;clip-rule:evenodd;stroke-linejoin:round;stroke-miterlimit:2;"><rect id="door" x="0" y="0" width="16" height="16" style="fill:none;"/><clipPath id="_clip1"><rect x="0" y="0" width="16" height="16"/></clipPath><g clip-path="url(#_clip1)"><path d="M14,16l-12,0l0,-10.004c-0,-1.59 0.632,-3.115 1.756,-4.24c1.125,-1.125 2.65,-1.756 4.24,-1.756l0.008,0c1.59,-0 3.115,0.632 4.24,1.756c1.125,1.125 1.756,2.65 1.756,4.24l0,10.004Zm-2,-1l1,0l-0,-9.004c0,-1.325 -0.526,-2.596 -1.463,-3.533c-0.937,-0.937 -2.208,-1.463 -3.533,-1.463l-0.008,-0c-1.325,-0 -2.596,0.526 -3.533,1.463c-0.937,0.937 -1.463,2.208 -1.463,3.533l-0,9.004l1,0l0,-9.012c0,-2.203 1.786,-3.988 3.988,-3.988l0.024,-0c2.203,0 3.988,1.786 3.988,3.988l-0,9.012Z" style="fill:#e36768;"/></g></svg>