<?xml version="1.0" encoding="UTF-8" standalone="no"?>
<!DOCTYPE svg PUBLIC "-//W3C//DTD SVG 1.1//EN" "http://www.w3.org/Graphics/SVG/1.1/DTD/svg11.dtd">
<svg width="100%" height="100%" viewBox="0 0 16 16" version="1.1" xmlns="http://www.w3.org/2000/svg" xmlns:xlink="http://www.w3.org/1999/xlink" xml:space="preserve" xmlns:serif="http://www.serif.com/" style="fill-rule:evenodd;clip-rule:evenodd;stroke-linejoin:round;stroke-miterlimit:2;">
    <g transform="matrix(1,0,0,1,-121,0)">
        <g id="enemy" transform="matrix(1,0,0,1,121,0)">
            <rect x="0" y="0" width="16" height="16" style="fill:none;"/>
            <clipPath id="_clip1">
                <rect x="0" y="0" width="16" height="16"/>
            </clipPath>
            <g clip-path="url(#_clip1)">
                <g transform="matrix(1,0,0,0.916667,-121,1.166667)">
                    <path d="M123.292,3.654C123.744,2.674 124.676,2 125.75,2L132.25,2C133.324,2 134.256,2.674 134.708,3.654C135.283,3.13 135,0.033 135,-1.273C139,4.182 135,8.545 135,8.545L135,11C135,12.562 133.904,13.846 132.506,13.987L131.5,16.182L130.5,14L127.5,14L126.5,16.182L125.494,13.987C124.096,13.846 123,12.562 123,11L123,8.545C123,8.545 119,4.182 123,-1.273C123,0.033 122.717,3.13 123.292,3.654ZM130.068,9.675C130.283,10.548 131.321,11.003 132.388,10.691C133.455,10.379 134.146,9.418 133.932,8.545L130.068,9.675ZM124.068,8.545C123.854,9.418 124.545,10.379 125.612,10.691C126.679,11.003 127.717,10.548 127.932,9.675L124.068,8.545Z" style="fill:rgb(255,80,95);"/>
                </g>
            </g>
        </g>
    </g>
</svg>
