<?xml version="1.0" encoding="UTF-8" standalone="no"?>
<!DOCTYPE svg PUBLIC "-//W3C//DTD SVG 1.1//EN" "http://www.w3.org/Graphics/SVG/1.1/DTD/svg11.dtd">
<svg width="100%" height="100%" viewBox="0 0 16 16" version="1.1" xmlns="http://www.w3.org/2000/svg" xmlns:xlink="http://www.w3.org/1999/xlink" xml:space="preserve" xmlns:serif="http://www.serif.com/" style="fill-rule:evenodd;clip-rule:evenodd;stroke-linejoin:round;stroke-miterlimit:2;">
    <g transform="matrix(1,0,0,1,-121,-45)">
        <g id="enemy_hit_particles" transform="matrix(1,0,0,1,121,45)">
            <rect x="0" y="0" width="16" height="16" style="fill:none;"/>
            <clipPath id="_clip1">
                <rect x="0" y="0" width="16" height="16"/>
            </clipPath>
            <g clip-path="url(#_clip1)">
                <g transform="matrix(1.4,0,0,1.166667,-237.4,-24.833333)">
                    <ellipse cx="178.5" cy="32" rx="2.5" ry="3" style="fill:rgb(255,80,95);"/>
                </g>
                <g transform="matrix(1,0,0,1,-121,-45)">
                    <rect x="130" y="51" width="1" height="1" style="fill:rgb(255,80,95);"/>
                </g>
                <g transform="matrix(1,0,0,1,-126,-48)">
                    <rect x="130" y="51" width="1" height="1" style="fill:rgb(255,80,95);"/>
                </g>
                <g transform="matrix(1,0,0,1,-123,-44)">
                    <rect x="130" y="51" width="1" height="1" style="fill:rgb(255,80,95);"/>
                </g>
                <g transform="matrix(1,0,0,1,-121,-46)">
                    <rect x="125" y="54" width="1" height="1" style="fill:rgb(255,80,95);"/>
                </g>
                <g transform="matrix(1,0,0,1,-121,-44)">
                    <rect x="123" y="51" width="1" height="1" style="fill:rgb(255,80,95);"/>
                </g>
                <g transform="matrix(1,0,0,1,-121,-45)">
                    <rect x="122" y="47" width="1" height="1" style="fill:rgb(255,80,95);"/>
                </g>
                <g transform="matrix(1,0,0,0.5,-121,-22)">
                    <rect x="127" y="46" width="1" height="2" style="fill:rgb(255,80,95);"/>
                </g>
                <g transform="matrix(1,0,0,1,-120,-45)">
                    <rect x="130" y="48" width="1" height="1" style="fill:rgb(255,80,95);"/>
                </g>
                <g transform="matrix(1,0,0,1,-120,-46)">
                    <rect x="128" y="49" width="1" height="1" style="fill:rgb(255,80,95);"/>
                </g>
                <g transform="matrix(1,0,0,1,-121,-45)">
                    <rect x="122" y="56" width="1" height="1" style="fill:rgb(255,80,95);"/>
                </g>
                <g transform="matrix(1,0,0,1,-121,-46)">
                    <rect x="128" y="56" width="1" height="1" style="fill:rgb(255,80,95);"/>
                </g>
                <g transform="matrix(1,0,0,1,-124,-44)">
                    <rect x="128" y="56" width="1" height="1" style="fill:rgb(255,80,95);"/>
                </g>
                <g transform="matrix(1,0,0,1,-121,-45)">
                    <rect x="133" y="52" width="1" height="1" style="fill:rgb(255,80,95);"/>
                </g>
                <g transform="matrix(1,0,0,1,-121,-46)">
                    <rect x="126" y="51" width="1" height="1" style="fill:rgb(255,80,95);"/>
                </g>
                <g transform="matrix(1,0,0,1,-121,-45)">
                    <rect x="124" y="45" width="1" height="1" style="fill:rgb(255,80,95);"/>
                </g>
                <g transform="matrix(1,0,0,1,-121,-45)">
                    <rect x="121" y="49" width="1" height="1" style="fill:rgb(255,80,95);"/>
                </g>
                <g transform="matrix(1,0,0,1,-121,-45)">
                    <rect x="121" y="53" width="1" height="1" style="fill:rgb(255,80,95);"/>
                </g>
                <g transform="matrix(1,0,0,1,-121,-45)">
                    <rect x="129" y="45" width="1" height="1" style="fill:rgb(255,80,95);"/>
                </g>
            </g>
        </g>
    </g>
</svg>
