<?xml version="1.0" encoding="UTF-8" standalone="no"?>
<!DOCTYPE svg PUBLIC "-//W3C//DTD SVG 1.1//EN" "http://www.w3.org/Graphics/SVG/1.1/DTD/svg11.dtd">
<svg width="100%" height="100%" viewBox="0 0 16 16" version="1.1" xmlns="http://www.w3.org/2000/svg" xmlns:xlink="http://www.w3.org/1999/xlink" xml:space="preserve" xmlns:serif="http://www.serif.com/" style="fill-rule:evenodd;clip-rule:evenodd;stroke-linejoin:round;stroke-miterlimit:2;">
    <g transform="matrix(1,0,0,1,-56,-48)">
        <g id="hazard_area" transform="matrix(1,0,0,1,56,48)">
            <rect x="0" y="0" width="16" height="16" style="fill:none;"/>
            <clipPath id="_clip1">
                <rect x="0" y="0" width="16" height="16"/>
            </clipPath>
            <g clip-path="url(#_clip1)">
                <g transform="matrix(1.220831,0,0,1.235251,-1.759935,-2.038468)">
                    <path d="M1.442,5.698L1.442,1.65L5.537,1.65L5.537,3.269L3.08,3.269L3.08,5.698L1.442,5.698ZM12.909,5.698L12.909,3.269L10.452,3.269L10.452,1.65L14.547,1.65L14.547,5.698L12.909,5.698ZM3.08,10.555L3.08,12.984L5.537,12.984L5.537,14.603L1.442,14.603L1.442,10.555L3.08,10.555Z" style="fill:rgb(255,80,95);"/>
                </g>
                <g transform="matrix(1.111111,0,0,1.111111,-64.888889,-56)">
                    <circle cx="66.5" cy="58.5" r="4.5" style="fill:rgb(255,80,95);"/>
                </g>
                <g transform="matrix(2,0,0,1.5,-111,-82)">
                    <path d="M60,56L61,58L59,58L60,56Z" style="fill:rgb(255,80,95);"/>
                </g>
                <g transform="matrix(-2,-0,0,-1.5,129,100)">
                    <path d="M60,56L61,58L59,58L60,56Z" style="fill:rgb(255,80,95);"/>
                </g>
                <g transform="matrix(-0,2,-1.5,-0,100,-111)">
                    <path d="M60,56L61,58L59,58L60,56Z" style="fill:rgb(255,80,95);"/>
                </g>
                <g transform="matrix(0,-2,1.5,0,-82,129)">
                    <path d="M60,56L61,58L59,58L60,56Z" style="fill:rgb(255,80,95);"/>
                </g>
                <g transform="matrix(1.050253,1.050253,-1.06066,1.06066,10.331565,-118.361869)">
                    <path d="M60,56L61,58L59,58L60,56Z" style="fill:rgb(255,80,95);"/>
                </g>
                <g transform="matrix(-1.050253,-1.050253,1.06066,-1.06066,7.668435,136.361869)">
                    <path d="M60,56L61,58L59,58L60,56Z" style="fill:rgb(255,80,95);"/>
                </g>
                <g transform="matrix(-1.050253,1.050253,-1.06066,-1.06066,136.361869,10.331565)">
                    <path d="M60,56L61,58L59,58L60,56Z" style="fill:rgb(255,80,95);"/>
                </g>
                <g transform="matrix(1.050253,-1.050253,1.06066,1.06066,-118.361869,7.668435)">
                    <path d="M60,56L61,58L59,58L60,56Z" style="fill:rgb(255,80,95);"/>
                </g>
                <g transform="matrix(0.666667,0,0,0.666667,-34.666667,-28.333333)">
                    <circle cx="65.5" cy="60.5" r="1.5" style="fill:white;"/>
                </g>
                <g transform="matrix(0.666667,0,0,1.666667,-34.666667,-93.333333)">
                    <circle cx="65.5" cy="60.5" r="1.5" style="fill:white;"/>
                </g>
            </g>
        </g>
    </g>
</svg>
