<?xml version="1.0" encoding="UTF-8" standalone="no"?><!DOCTYPE svg PUBLIC "-//W3C//DTD SVG 1.1//EN" "http://www.w3.org/Graphics/SVG/1.1/DTD/svg11.dtd"><svg width="100%" height="100%" viewBox="0 0 16 16" version="1.1" xmlns="http://www.w3.org/2000/svg" xmlns:xlink="http://www.w3.org/1999/xlink" xml:space="preserve" xmlns:serif="http://www.serif.com/" style="fill-rule:evenodd;clip-rule:evenodd;stroke-linejoin:round;stroke-miterlimit:2;"><rect id="music_auto" x="0" y="0" width="16" height="16" style="fill:none;"/><path d="M8,0c4.415,0 8,3.585 8,8c0,4.415 -3.585,8 -8,8c-4.415,0 -8,-3.585 -8,-8c0,-4.415 3.585,-8 8,-8Zm0,1c-3.863,0 -7,3.137 -7,7c0,3.863 3.137,7 7,7c3.863,0 7,-3.137 7,-7c0,-3.863 -3.137,-7 -7,-7Z" style="fill:#ffa900;"/><path d="M8,1c3.863,0 7,3.137 7,7c0,3.863 -3.137,7 -7,7c-3.863,0 -7,-3.137 -7,-7c0,-3.863 3.137,-7 7,-7Zm1,10l0,-4c0,-0.017 -0.002,-0.053 0,-0.101c0.013,-0.254 0.131,-0.899 1,-0.899c1,0 1,1 3,1c-2,-1 -1.586,-3 -3,-3l-2,0l-0,5.4c-0.418,-0.251 -0.937,-0.4 -1.5,-0.4c-1.38,0 -2.5,0.896 -2.5,2c0,1.104 1.12,2 2.5,2c1.38,0 2.5,-0.896 2.5,-2Z" style="fill:#f67107;"/></svg>