<?xml version="1.0" encoding="UTF-8" standalone="no"?>
<!DOCTYPE svg PUBLIC "-//W3C//DTD SVG 1.1//EN" "http://www.w3.org/Graphics/SVG/1.1/DTD/svg11.dtd">
<svg width="100%" height="100%" viewBox="0 0 16 16" version="1.1" xmlns="http://www.w3.org/2000/svg" xmlns:xlink="http://www.w3.org/1999/xlink" xml:space="preserve" xmlns:serif="http://www.serif.com/" style="fill-rule:evenodd;clip-rule:evenodd;stroke-linejoin:round;stroke-miterlimit:2;">
    <g transform="matrix(1,0,0,1,-165,-24)">
        <g id="player_sensor" transform="matrix(1,0,0,1,165,24)">
            <rect x="0" y="0" width="16" height="16" style="fill:none;"/>
            <g transform="matrix(0,1,-1,0,40,-165)">
                <path d="M176.354,30.707L181,40L165,40L169.646,30.707C170.534,31.51 171.71,32 173,32C174.29,32 175.466,31.51 176.354,30.707ZM169,35L169,37L174,37L174,35L169,35ZM175,35L175,37L177,37L177,35L175,35Z" style="fill:rgb(255,170,82);"/>
            </g>
            <g transform="matrix(1.2,0,0,1,-201.2,-24)">
                <ellipse cx="178.5" cy="32" rx="2.5" ry="3" style="fill:rgb(255,80,95);"/>
            </g>
        </g>
    </g>
</svg>
