<?xml version="1.0" encoding="UTF-8" standalone="no"?><!DOCTYPE svg PUBLIC "-//W3C//DTD SVG 1.1//EN" "http://www.w3.org/Graphics/SVG/1.1/DTD/svg11.dtd"><svg width="100%" height="100%" viewBox="0 0 16 16" version="1.1" xmlns="http://www.w3.org/2000/svg" xmlns:xlink="http://www.w3.org/1999/xlink" xml:space="preserve" xmlns:serif="http://www.serif.com/" style="fill-rule:evenodd;clip-rule:evenodd;stroke-linejoin:round;stroke-miterlimit:2;"><rect id="save_point" x="0" y="0" width="16" height="16" style="fill:none;"/><path d="M8,0c4.415,0 8,3.585 8,8c0,4.415 -3.585,8 -8,8c-4.415,0 -8,-3.585 -8,-8c0,-4.415 3.585,-8 8,-8Zm0.019,13c0.825,0 1.454,-0.234 1.887,-0.703c0.433,-0.469 0.649,-1.141 0.649,-2.017c0,-0.672 -0.132,-1.258 -0.397,-1.757c-0.265,-0.499 -0.749,-1.054 -1.451,-1.665c-0.55,-0.479 -0.929,-0.886 -1.138,-1.222c-0.209,-0.336 -0.313,-0.698 -0.313,-1.085c0,-0.682 0.28,-1.024 0.84,-1.024c0.275,0 0.484,0.084 0.626,0.252c0.143,0.168 0.214,0.435 0.214,0.802l0,0.55l1.589,0l0,-0.443c0,-0.866 -0.206,-1.53 -0.619,-1.994c-0.412,-0.463 -1.021,-0.695 -1.826,-0.695c-0.815,0 -1.436,0.232 -1.864,0.695c-0.428,0.463 -0.642,1.118 -0.642,1.963c0,0.621 0.138,1.179 0.413,1.673c0.275,0.494 0.759,1.047 1.451,1.658c0.55,0.479 0.927,0.889 1.131,1.23c0.204,0.341 0.306,0.736 0.306,1.184c0,0.377 -0.074,0.649 -0.222,0.817c-0.148,0.168 -0.364,0.252 -0.649,0.252c-0.581,0 -0.871,-0.346 -0.871,-1.039l0,-0.733l-1.589,0l0,0.611c0,0.866 0.209,1.53 0.626,1.994c0.418,0.463 1.034,0.695 1.849,0.695Z" style="fill:#eb50e2;"/></svg>