<?xml version="1.0" encoding="UTF-8" standalone="no"?><!DOCTYPE svg PUBLIC "-//W3C//DTD SVG 1.1//EN" "http://www.w3.org/Graphics/SVG/1.1/DTD/svg11.dtd"><svg width="100%" height="100%" viewBox="0 0 16 16" version="1.1" xmlns="http://www.w3.org/2000/svg" xmlns:xlink="http://www.w3.org/1999/xlink" xml:space="preserve" xmlns:serif="http://www.serif.com/" style="fill-rule:evenodd;clip-rule:evenodd;stroke-linejoin:round;stroke-miterlimit:2;"><rect id="switch" x="0" y="0" width="16" height="16" style="fill:none;"/><path d="M11.718,11.75l2.282,0l0,2.25l-12,0l0,-2.25l2.282,0c0.164,-1.152 0.946,-2.126 2.03,-2.631l-0.726,-1.258c0.492,-0.146 0.937,-0.401 1.307,-0.737l0.94,1.629c0.056,-0.002 0.112,-0.003 0.168,-0.003c1.903,0 3.478,1.308 3.718,3Zm-7.093,-9.75c1.449,0 2.625,1.176 2.625,2.625c0,1.449 -1.176,2.625 -2.625,2.625c-1.449,0 -2.625,-1.176 -2.625,-2.625c0,-1.449 1.176,-2.625 2.625,-2.625Z" style="fill:#e36768;"/></svg>